<svg width="650" height="650" viewBox="-100 -90 800 800" fill="none" xmlns="http://www.w3.org/2000/svg" >
<path d="M522.477 205.872H10.5215V387.133C10.5215 529.258 126.715 643.329 269.009 641.952C409.962 640.61 522.477 528.191 522.477 387.133V205.872ZM119.253 314.78H413.71V387.133C413.71 467.403 348.959 531.771 268.769 533.044C187.134 534.283 119.253 468.539 119.253 387.133V314.78Z" fill="black"/>
<path d="M522.477 12.0479H10.5215V120.922H522.477V12.0479Z" fill="#614FED"/>
<path d="M405.322 637.777L352.465 583.129L447.253 508.76L345.6 452.937L383.206 390.448L477.235 455.776L495.986 342.214L572.56 358.625L543.124 469.898L655.667 448.842L664.361 521.255L548.758 530.515L604.15 637.071L533.666 664.665L490.101 555.074L405.322 637.777Z" fill="white"/>
</svg>
